<svg xmlns="http://www.w3.org/2000/svg" viewBox="0 0 1000 750" width="1000" height="750" fill="none"><rect width="1000" height="750" fill="#16273f"/><line x1="60" y1="60" x2="60" y2="600" stroke="#c3ccd9" stroke-opacity=".06"/><line x1="115" y1="60" x2="115" y2="600" stroke="#c3ccd9" stroke-opacity=".06"/><line x1="170" y1="60" x2="170" y2="600" stroke="#c3ccd9" stroke-opacity=".06"/><line x1="225" y1="60" x2="225" y2="600" stroke="#c3ccd9" stroke-opacity=".06"/><line x1="280" y1="60" x2="280" y2="600" stroke="#c3ccd9" stroke-opacity=".06"/><line x1="335" y1="60" x2="335" y2="600" stroke="#c3ccd9" stroke-opacity=".06"/><line x1="390" y1="60" x2="390" y2="600" stroke="#c3ccd9" stroke-opacity=".06"/><line x1="445" y1="60" x2="445" y2="600" stroke="#c3ccd9" stroke-opacity=".06"/><line x1="500" y1="60" x2="500" y2="600" stroke="#c3ccd9" stroke-opacity=".06"/><line x1="555" y1="60" x2="555" y2="600" stroke="#c3ccd9" stroke-opacity=".06"/><line x1="610" y1="60" x2="610" y2="600" stroke="#c3ccd9" stroke-opacity=".06"/><line x1="665" y1="60" x2="665" y2="600" stroke="#c3ccd9" stroke-opacity=".06"/><line x1="720" y1="60" x2="720" y2="600" stroke="#c3ccd9" stroke-opacity=".06"/><line x1="775" y1="60" x2="775" y2="600" stroke="#c3ccd9" stroke-opacity=".06"/><line x1="830" y1="60" x2="830" y2="600" stroke="#c3ccd9" stroke-opacity=".06"/><line x1="885" y1="60" x2="885" y2="600" stroke="#c3ccd9" stroke-opacity=".06"/><line x1="940" y1="60" x2="940" y2="600" stroke="#c3ccd9" stroke-opacity=".06"/><line x1="60" y1="60" x2="940" y2="60" stroke="#c3ccd9" stroke-opacity=".06"/><line x1="60" y1="115" x2="940" y2="115" stroke="#c3ccd9" stroke-opacity=".06"/><line x1="60" y1="170" x2="940" y2="170" stroke="#c3ccd9" stroke-opacity=".06"/><line x1="60" y1="225" x2="940" y2="225" stroke="#c3ccd9" stroke-opacity=".06"/><line x1="60" y1="280" x2="940" y2="280" stroke="#c3ccd9" stroke-opacity=".06"/><line x1="60" y1="335" x2="940" y2="335" stroke="#c3ccd9" stroke-opacity=".06"/><line x1="60" y1="390" x2="940" y2="390" stroke="#c3ccd9" stroke-opacity=".06"/><line x1="60" y1="445" x2="940" y2="445" stroke="#c3ccd9" stroke-opacity=".06"/><line x1="60" y1="500" x2="940" y2="500" stroke="#c3ccd9" stroke-opacity=".06"/><line x1="60" y1="555" x2="940" y2="555" stroke="#c3ccd9" stroke-opacity=".06"/><line x1="0" y1="600" x2="1000" y2="600" stroke="#c3ccd9" stroke-opacity=".4" stroke-width="3"/><line x1="0" y1="600" x2="0" y2="750" stroke="#c3ccd9" stroke-opacity=".1"/><line x1="60" y1="600" x2="60" y2="750" stroke="#c3ccd9" stroke-opacity=".1"/><line x1="120" y1="600" x2="120" y2="750" stroke="#c3ccd9" stroke-opacity=".1"/><line x1="180" y1="600" x2="180" y2="750" stroke="#c3ccd9" stroke-opacity=".1"/><line x1="240" y1="600" x2="240" y2="750" stroke="#c3ccd9" stroke-opacity=".1"/><line x1="300" y1="600" x2="300" y2="750" stroke="#c3ccd9" stroke-opacity=".1"/><line x1="360" y1="600" x2="360" y2="750" stroke="#c3ccd9" stroke-opacity=".1"/><line x1="420" y1="600" x2="420" y2="750" stroke="#c3ccd9" stroke-opacity=".1"/><line x1="480" y1="600" x2="480" y2="750" stroke="#c3ccd9" stroke-opacity=".1"/><line x1="540" y1="600" x2="540" y2="750" stroke="#c3ccd9" stroke-opacity=".1"/><line x1="600" y1="600" x2="600" y2="750" stroke="#c3ccd9" stroke-opacity=".1"/><line x1="660" y1="600" x2="660" y2="750" stroke="#c3ccd9" stroke-opacity=".1"/><line x1="720" y1="600" x2="720" y2="750" stroke="#c3ccd9" stroke-opacity=".1"/><line x1="780" y1="600" x2="780" y2="750" stroke="#c3ccd9" stroke-opacity=".1"/><line x1="840" y1="600" x2="840" y2="750" stroke="#c3ccd9" stroke-opacity=".1"/><line x1="900" y1="600" x2="900" y2="750" stroke="#c3ccd9" stroke-opacity=".1"/><line x1="960" y1="600" x2="960" y2="750" stroke="#c3ccd9" stroke-opacity=".1"/><line x1="0" y1="678" x2="1000" y2="678" stroke="#c3ccd9" stroke-opacity=".1"/><rect x="124" y="118" width="132" height="186" rx="4" stroke="#c3ccd9" stroke-opacity=".3" stroke-width="2"/><path d="M136 292 L244 130" stroke="#c3ccd9" stroke-opacity=".1" stroke-width="10"/><rect x="304" y="118" width="132" height="186" rx="4" stroke="#c3ccd9" stroke-opacity=".3" stroke-width="2"/><path d="M316 292 L424 130" stroke="#c3ccd9" stroke-opacity=".1" stroke-width="10"/><rect x="484" y="118" width="132" height="186" rx="4" stroke="#c3ccd9" stroke-opacity=".3" stroke-width="2"/><path d="M496 292 L604 130" stroke="#c3ccd9" stroke-opacity=".1" stroke-width="10"/><path d="M80 424 H660 V452 H80 Z" fill="#c3ccd9" fill-opacity=".1" stroke="#c3ccd9" stroke-opacity=".45" stroke-width="2"/><line x1="80" y1="452" x2="80" y2="600" stroke="#c3ccd9" stroke-opacity=".18" stroke-width="2"/><line x1="660" y1="452" x2="660" y2="600" stroke="#c3ccd9" stroke-opacity=".18" stroke-width="2"/><ellipse cx="190" cy="438" rx="64" ry="19" fill="#16273f" stroke="#c3ccd9" stroke-opacity=".45" stroke-width="2"/><path d="M190 402 v-42 a24 24 0 0 1 24 -24" stroke="#c3ccd9" stroke-opacity=".55" stroke-width="4" stroke-linecap="round"/><ellipse cx="370" cy="438" rx="64" ry="19" fill="#16273f" stroke="#c3ccd9" stroke-opacity=".45" stroke-width="2"/><path d="M370 402 v-42 a24 24 0 0 1 24 -24" stroke="#c3ccd9" stroke-opacity=".55" stroke-width="4" stroke-linecap="round"/><ellipse cx="550" cy="438" rx="64" ry="19" fill="#16273f" stroke="#c3ccd9" stroke-opacity=".45" stroke-width="2"/><path d="M550 402 v-42 a24 24 0 0 1 24 -24" stroke="#c3ccd9" stroke-opacity=".55" stroke-width="4" stroke-linecap="round"/><line x1="730" y1="220" x2="730" y2="600" stroke="#c3ccd9" stroke-opacity=".35" stroke-width="3"/><line x1="890" y1="220" x2="890" y2="600" stroke="#c3ccd9" stroke-opacity=".35" stroke-width="3"/><line x1="710" y1="220" x2="960" y2="220" stroke="#c3ccd9" stroke-opacity=".35" stroke-width="3"/><rect x="756" y="430" width="108" height="96" rx="12" fill="#16273f" stroke="#c3ccd9" stroke-opacity=".4" stroke-width="2"/><rect x="772" y="380" width="76" height="50" rx="6" stroke="#c3ccd9" stroke-opacity=".3" stroke-width="2"/><rect x="672" y="300" width="48" height="74" rx="6" stroke="#e4a06e" stroke-opacity=".6" stroke-width="2"/><line x1="686" y1="380" x2="706" y2="380" stroke="#e4a06e" stroke-opacity=".4" stroke-width="3" stroke-linecap="round"/><circle cx="214" cy="336" r="27" stroke="#e4a06e" stroke-width="1.5" stroke-opacity=".25"/><circle cx="214" cy="336" r="15" fill="#16273f"/><circle cx="214" cy="336" r="15" stroke="#e4a06e" stroke-width="2.5"/><circle cx="214" cy="336" r="4.5" fill="#e4a06e"/><circle cx="394" cy="336" r="27" stroke="#e4a06e" stroke-width="1.5" stroke-opacity=".25"/><circle cx="394" cy="336" r="15" fill="#16273f"/><circle cx="394" cy="336" r="15" stroke="#e4a06e" stroke-width="2.5"/><circle cx="394" cy="336" r="4.5" fill="#e4a06e"/><circle cx="574" cy="336" r="27" stroke="#e4a06e" stroke-width="1.5" stroke-opacity=".25"/><circle cx="574" cy="336" r="15" fill="#16273f"/><circle cx="574" cy="336" r="15" stroke="#e4a06e" stroke-width="2.5"/><circle cx="574" cy="336" r="4.5" fill="#e4a06e"/><circle cx="696" cy="336" r="27" stroke="#e4a06e" stroke-width="1.5" stroke-opacity=".25"/><circle cx="696" cy="336" r="15" fill="#16273f"/><circle cx="696" cy="336" r="15" stroke="#e4a06e" stroke-width="2.5"/><circle cx="696" cy="336" r="4.5" fill="#e4a06e"/><circle cx="810" cy="430" r="27" stroke="#e4a06e" stroke-width="1.5" stroke-opacity=".25"/><circle cx="810" cy="430" r="15" fill="#16273f"/><circle cx="810" cy="430" r="15" stroke="#e4a06e" stroke-width="2.5"/><circle cx="810" cy="430" r="4.5" fill="#e4a06e"/><circle cx="920" cy="300" r="27" stroke="#e4a06e" stroke-width="1.5" stroke-opacity=".25"/><circle cx="920" cy="300" r="15" fill="#16273f"/><circle cx="920" cy="300" r="15" stroke="#e4a06e" stroke-width="2.5"/><circle cx="920" cy="300" r="4.5" fill="#e4a06e"/></svg>